<svg width="120" height="120" viewBox="0 0 120 120" fill="none" xmlns="http://www.w3.org/2000/svg">
<rect width="120" height="120" rx="8" fill="white"/>
<path fill-rule="evenodd" clip-rule="evenodd" d="M62.0547 41.0764C65.0638 37.1103 69.2471 37.0909 69.2471 37.0909C69.2471 37.0909 69.8694 40.8197 66.88 44.4118C63.6881 48.2473 60.06 47.6196 60.06 47.6196C60.06 47.6196 59.3788 44.6032 62.0547 41.0764ZM60.4427 50.2317C61.9908 50.2317 64.8639 48.1037 68.6036 48.1037C75.0408 48.1037 77.5732 52.6842 77.5732 52.6842C77.5732 52.6842 72.6203 55.2166 72.6203 61.3612C72.6203 68.2928 78.7903 70.6817 78.7903 70.6817C78.7903 70.6817 74.4772 82.8214 68.6515 82.8214C65.9758 82.8214 63.8955 81.0182 61.0762 81.0182C58.2031 81.0182 55.352 82.8887 53.4951 82.8887C48.1753 82.8888 41.4545 71.373 41.4545 62.1162C41.4545 53.0089 47.1432 48.2313 52.479 48.2313C55.9477 48.2313 58.6394 50.2317 60.4427 50.2317Z" fill="#919EAB"/>
</svg>
