<svg width="120" height="120" viewBox="0 0 120 120" fill="none" xmlns="http://www.w3.org/2000/svg">
<rect width="120" height="120" rx="8" fill="white"/>
<path fill-rule="evenodd" clip-rule="evenodd" d="M103.643 50.3541C104.008 50.3541 104.365 50.4494 104.713 50.641C105.057 50.8289 105.34 51.1152 105.527 51.4648C105.721 51.8212 105.818 52.1938 105.818 52.5816C105.818 52.9648 105.723 53.3338 105.531 53.6872C105.345 54.0351 105.066 54.3213 104.726 54.5119C104.396 54.704 104.023 54.8053 103.643 54.806C103.263 54.8052 102.89 54.704 102.559 54.5119C102.219 54.3214 101.939 54.0352 101.753 53.6872C101.565 53.3504 101.465 52.9694 101.465 52.5816C101.465 52.1938 101.562 51.8212 101.757 51.4648C101.945 51.1149 102.228 50.8287 102.573 50.641C102.9 50.4552 103.268 50.3565 103.643 50.3541ZM103.643 50.7227C103.337 50.7227 103.04 50.8033 102.75 50.9634C102.461 51.1236 102.234 51.3533 102.071 51.6503C101.907 51.9484 101.826 52.2586 101.826 52.5816C101.826 52.9014 101.906 53.2086 102.067 53.5026C102.226 53.7967 102.451 54.0263 102.739 54.1905C103.015 54.351 103.326 54.4358 103.642 54.4369C103.959 54.4357 104.27 54.3508 104.545 54.1905C104.829 54.0314 105.061 53.7927 105.216 53.5026C105.376 53.2086 105.455 52.9014 105.455 52.5816C105.455 52.2581 105.375 51.9479 105.213 51.6503C105.05 51.3533 104.823 51.1236 104.533 50.9634C104.243 50.8033 103.946 50.7227 103.643 50.7227ZM102.688 53.8114V51.4166H103.492C103.768 51.4166 103.967 51.4379 104.09 51.482C104.213 51.5261 104.31 51.6037 104.384 51.7137C104.457 51.8247 104.494 51.9413 104.494 52.065C104.494 52.2404 104.433 52.3925 104.311 52.5217C104.188 52.652 104.026 52.724 103.824 52.7407C103.908 52.7757 103.974 52.8178 104.023 52.8675C104.117 52.9623 104.233 53.1204 104.37 53.343L104.655 53.8114H104.193L103.985 53.4337C103.822 53.1377 103.691 52.9516 103.59 52.8771C103.521 52.8218 103.42 52.7945 103.287 52.7945H103.066V53.8114H102.688ZM103.066 52.464H103.525C103.743 52.464 103.893 52.4295 103.973 52.3631C104.052 52.2988 104.096 52.2004 104.093 52.0974C104.093 52.0295 104.073 51.9631 104.035 51.9073C103.995 51.8506 103.939 51.8072 103.875 51.7826C103.806 51.7542 103.681 51.7411 103.495 51.7411H103.066V52.464ZM61.6785 50.2076H61.7508V55.3256H56.6954V50.2076H61.6785ZM39.6763 61.0305L51.3688 61.7722C51.855 61.7722 52.2525 62.1792 52.2525 62.676C52.2525 63.1728 51.855 63.5799 51.3688 63.5799H34.705V56.9178C35.217 58.9749 36.9795 60.6574 39.6763 61.0305ZM34.705 68.7267H51.741C54.2241 68.7267 56.3092 66.8942 56.7687 64.4863C57.1741 66.8861 59.2266 68.7267 61.679 68.7267H72.5636C74.9952 68.7267 77.0347 66.916 77.4629 64.5446V68.7267H94.9147C97.7319 68.7267 100.037 66.3695 100.037 63.4871V62.7455C100.037 59.8641 97.7319 57.5069 94.9147 57.5069L93.9572 57.4638C88.5275 57.2194 83.1142 56.9396 77.6914 56.6532C78.1137 58.8294 79.9094 60.6412 82.7211 61.0305L94.542 61.7722C95.0297 61.7736 95.4248 62.1772 95.4267 62.676C95.4248 63.1748 95.0297 63.5785 94.542 63.5799H77.5462V56.6456L72.4912 56.379V62.31C72.489 63.1426 71.8297 63.8169 71.0157 63.8191H63.2268C62.4127 63.8172 61.7532 63.1427 61.7513 62.31V55.8122L56.6954 55.5456V61.4249C56.1174 59.201 54.1101 57.5976 51.741 57.5976L29.4756 56.1088V68.7272H34.705V68.7267ZM55.8919 55.3281V50.1818H39.6763C37.2823 50.1818 35.2592 51.8835 34.705 54.1632V50.2071H25.0258L21.7273 55.3256H34.5559L55.8919 55.3281ZM27.3404 55.982L19.3453 68.7267H13.0909L21.5256 55.6388L27.3404 55.982ZM100.036 55.3281V50.1818H82.7206C79.9347 50.1818 77.6503 52.4878 77.5997 55.3256L100.036 55.3281ZM72.4907 55.3256V50.2076H77.5457V55.3256H72.4907Z" fill="#919EAB"/>
</svg>
