<svg width="56" height="56" viewBox="0 0 56 56" fill="none" xmlns="http://www.w3.org/2000/svg">
<path fill-rule="evenodd" clip-rule="evenodd" d="M17.9058 29.1425H27.0369V50.4215C21.0863 50.1629 15.7372 47.5862 11.8707 43.5721C15.4317 39.4124 17.2144 34.278 17.2426 29.1425H17.9058ZM17.9058 26.9004L27.037 26.9004V5.62146C20.6106 5.90068 14.8858 8.88349 10.9723 13.4605C14.6176 17.2437 16.6815 22.0076 17.1432 26.9004L17.9058 26.9004ZM14.8893 26.9004C14.4458 22.6748 12.6726 18.5674 9.58615 15.2577C7.27202 18.5931 5.83999 22.5864 5.6275 26.9004H14.8893ZM5.6275 29.1425C5.86333 33.9305 7.60146 38.3236 10.3805 41.8605C13.4391 38.1673 14.9723 33.6559 14.9998 29.1425H5.6275ZM37.4885 26.9004L29.2797 26.9004V5.63434C35.5997 5.98206 41.2223 8.9457 45.0827 13.4605C41.438 17.2431 39.3737 22.0071 38.9118 26.9004L37.4885 26.9004ZM37.4885 29.1425H29.2797V50.4086C35.1254 50.087 40.3745 47.5273 44.1843 43.5721C40.6227 39.4116 38.8404 34.2774 38.8124 29.1425H37.4885ZM41.0552 29.1425C41.0826 33.6553 42.6154 38.1666 45.6745 41.8605C48.4535 38.3236 50.1917 33.9305 50.4275 29.1425H41.0552ZM50.4275 26.9004C50.215 22.5864 48.783 18.5931 46.4689 15.2577C43.3828 18.5669 41.6093 22.6744 41.1657 26.9004H50.4275Z" fill="#454F5B"/>
</svg>
