<svg width="56" height="56" viewBox="0 0 56 56" fill="none" xmlns="http://www.w3.org/2000/svg">
<path fill-rule="evenodd" clip-rule="evenodd" d="M18.055 9.54697L16.1079 13.44H12.32C7.9901 13.44 4.48001 16.9501 4.48001 21.28V41.44C4.48001 45.7699 7.9901 49.28 12.32 49.28H43.68C48.0099 49.28 51.52 45.7699 51.52 41.44V21.28C51.52 16.9501 48.0099 13.44 43.68 13.44H39.8922L37.9618 9.57912C37.7674 9.21878 37.4793 8.75222 37.1126 8.27638C36.6399 7.66297 36.1618 7.20221 35.6243 6.94008C35.3363 6.79961 35.0347 6.72 34.72 6.72H21.28C20.9654 6.72 20.6637 6.79961 20.3757 6.94008C19.8382 7.20221 19.3601 7.66297 18.8874 8.27638C18.5207 8.75222 18.2326 9.21878 18.055 9.54697ZM15.68 22.4C15.68 23.6371 14.6771 24.64 13.44 24.64C12.2029 24.64 11.2 23.6371 11.2 22.4C11.2 21.1629 12.2029 20.16 13.44 20.16C14.6771 20.16 15.68 21.1629 15.68 22.4ZM28 40.32C33.567 40.32 38.08 35.807 38.08 30.24C38.08 24.673 33.567 20.16 28 20.16C22.433 20.16 17.92 24.673 17.92 30.24C17.92 35.807 22.433 40.32 28 40.32ZM35.84 30.24C35.84 34.5699 32.3299 38.08 28 38.08C23.6701 38.08 20.16 34.5699 20.16 30.24C20.16 25.9101 23.6701 22.4 28 22.4C32.3299 22.4 35.84 25.9101 35.84 30.24Z" fill="#454F5B"/>
</svg>
