<svg width="120" height="120" viewBox="0 0 120 120" fill="none" xmlns="http://www.w3.org/2000/svg">
<rect width="120" height="120" rx="8" fill="white"/>
<path fill-rule="evenodd" clip-rule="evenodd" d="M64.7422 59.4044C64.7422 59.4044 63.7729 58.805 63.1735 58.5731C63.1735 58.5731 61.3181 57.7132 60.9501 57.3041C60.9501 57.3041 60.2269 56.6226 60.6504 55.8311C60.6504 55.8311 60.8276 55.3132 61.5917 55.3132C61.5917 55.3132 62.5865 55.3679 62.5865 56.1855V57.3389H66.1517L66.1455 55.6403C66.1455 55.6403 66.4197 52.8585 61.9461 52.736C61.9461 52.736 58.4276 52.5047 57.4184 54.3998C57.4184 54.3998 57.0224 54.8226 57.0224 56.295V57.3588C57.0224 57.3588 56.982 58.5862 57.6087 59.377C57.6087 59.377 57.9631 59.8956 58.8361 60.4676C58.8361 60.4676 60.6087 61.422 61.6725 61.9685C61.6725 61.9685 62.7463 62.5816 62.6052 63.5571C62.6052 63.5571 62.5175 64.5588 61.4804 64.5178C61.4804 64.5178 60.5322 64.4755 60.5322 63.4931V62.3404H56.7333V64.0148C56.7333 64.0148 56.6269 67.2168 61.5084 67.2168C61.5084 67.2168 66.1728 67.3113 66.3905 63.9308V62.5673C66.3898 62.5673 66.5552 60.4956 64.7422 59.4044ZM46.4897 53.1346L45.296 60.6156H45.0168L43.8765 53.2017H37.9212L37.6228 66.7493H41.1488L41.1911 56.5418H41.4684L43.3374 66.7474H47.0468L48.8928 56.5455H49.1384L49.2236 66.7493H52.7683L52.3865 53.1346H46.4897ZM25.5003 53.1911L23.1544 66.7337H26.9503L28.3399 56.2334H28.652L30.041 66.7337H33.8363L31.491 53.1911H25.5003ZM105.149 59.2179V61.2156H106.123V63.36C106.123 64.4083 105.227 64.4276 105.227 64.4276C104.138 64.4276 104.179 63.4315 104.179 63.4315V56.0139C104.179 55.2498 105.145 55.2088 105.145 55.2088C106.073 55.2088 106.079 56.1203 106.079 56.1203V57.2481H109.653C109.77 55.0465 109.331 54.5136 109.331 54.5136C108.445 52.5227 105.091 52.6315 105.091 52.6315C99.937 52.6315 100.509 56.586 100.509 56.586V63.758C100.62 67.4668 105.698 67.09 105.784 67.0869C108.043 66.8369 108.725 66.1188 108.725 66.1188C109.353 65.6525 109.515 65.0065 109.515 65.0065C109.694 64.6303 109.739 63.4315 109.739 63.4315V59.2179H105.149ZM93.3028 61.422H93.1474L89.5206 53.1383H85.1814V66.7505H88.713L88.5016 58.468H88.6595L92.4168 66.7505H96.6243V53.137H93.0479L93.3028 61.422ZM76.5606 63.3588C76.5606 63.3588 76.6116 64.4761 75.5758 64.4761C75.5758 64.4761 74.4864 64.5346 74.4864 63.3868L74.4752 53.1464H70.6017V63.3053C70.6017 63.3053 70.2044 67.1503 75.6305 67.1503C75.6305 67.1503 80.3459 67.2063 80.3459 63.4819V53.147H76.5606V63.3588ZM18.1156 59.4044C18.1156 59.4044 17.1476 58.805 16.5476 58.5737C16.5476 58.5737 14.6935 57.7145 14.3254 57.3047C14.3254 57.3047 13.6023 56.622 14.0263 55.8324C14.0263 55.8324 14.2029 55.3145 14.9664 55.3145C14.9664 55.3145 15.9619 55.3685 15.9619 56.1862V57.3395H19.5283L19.5214 55.6403C19.5214 55.6403 19.7938 52.8585 15.3221 52.7366C15.3221 52.7366 14.9851 52.7149 14.4908 52.7397C14.4908 52.7397 11.7818 52.8852 10.8131 54.3712C10.8075 54.3824 10.7994 54.3905 10.7938 54.4005C10.7938 54.4005 10.3983 54.8226 10.3983 56.2956V57.3594C10.3983 57.3594 10.3573 58.5868 10.9847 59.3777C10.9847 59.3777 11.3391 59.8962 12.212 60.4682C12.212 60.4682 13.984 61.4226 15.0479 61.9692C15.0479 61.9692 16.1229 62.581 15.9805 63.5578C15.9805 63.5578 15.8928 64.5594 14.8564 64.5184C14.8564 64.5184 13.9082 64.4761 13.9082 63.4937V62.3404H10.1086V64.016C10.1086 64.016 10.0023 67.2181 14.8837 67.2181C14.8837 67.2181 19.5469 67.3126 19.7664 63.9321V62.5698C19.7664 62.5685 19.9293 60.4956 18.1156 59.4044Z" fill="#919EAB"/>
</svg>
