<svg width="56" height="56" viewBox="0 0 56 56" fill="none" xmlns="http://www.w3.org/2000/svg">
<path fill-rule="evenodd" clip-rule="evenodd" d="M44.8 23.52V48.16C44.8 50.0157 43.2957 51.52 41.44 51.52H14.56C12.7043 51.52 11.2 50.0157 11.2 48.16V23.52C11.2 23.2939 11.2685 23.073 11.3964 22.8865C14.0784 18.9759 15.5473 14.361 15.619 9.61951L15.6801 5.58305C15.6894 4.97117 16.188 4.48 16.8 4.48H21.28C21.8986 4.48 22.4 4.98144 22.4 5.6C22.4 8.69279 24.9072 11.2 28 11.2C31.0928 11.2 33.6 8.69279 33.6 5.6C33.6 4.98144 34.1014 4.48 34.72 4.48H39.2C39.8496 4.48 40.3629 5.03078 40.3172 5.67874L40.074 9.12954C39.7242 14.0927 41.3249 18.9964 44.5356 22.7973C44.7063 22.9994 44.8 23.2554 44.8 23.52Z" fill="#454F5B"/>
</svg>
