<svg width="120" height="120" viewBox="0 0 120 120" fill="none" xmlns="http://www.w3.org/2000/svg">
<rect width="120" height="120" rx="8" fill="white"/>
<path fill-rule="evenodd" clip-rule="evenodd" d="M96.3023 57.8114L99.1981 54.6893C99.366 54.4601 99.4494 54.2996 99.4494 54.1621C99.4494 53.9329 99.2542 53.8412 98.6403 53.8412H97.9096V51.8701H105.818V53.8412H104.779C103.579 53.8412 103.356 54.0242 101.682 56.1558L97.1005 61.1513V64.1997C97.1005 64.9796 97.4904 65.254 98.607 65.254H100.337V67.1559H89.2595V65.254H90.9891C92.1047 65.254 92.4956 64.9796 92.4956 64.1997V61.1513L87.0999 55.1241C86.2083 54.0704 86.3315 53.8412 83.8489 53.8412V51.8701H93.8665V53.8412H93.1532C92.4275 53.8412 92.1201 53.9786 92.1201 54.2534C92.1201 54.4831 92.3431 54.6662 92.4827 54.8493L95.2125 57.8536C95.5369 58.1941 95.9328 58.2383 96.3023 57.8114ZM29.0898 51.8696H31.5062V57.3696H29.2745C29.0768 56.2702 28.3954 55.8423 27.774 55.2656C26.6529 54.2253 24.225 53.3592 22.1831 53.3592C19.5476 53.3592 17.3233 54.1847 17.3233 55.3985C17.3233 58.7679 32.3958 56.0866 32.3958 62.4573C32.3958 65.7801 29.1672 67.6363 23.3692 67.6363C21.362 67.6363 18.3247 67.0074 16.5326 66.0464C15.9708 65.7189 15.7324 66.3564 15.6271 67.1553H13.1495V61.4718H15.3906C15.8849 62.9157 16.5659 63.2132 17.1922 63.7864C18.279 64.795 20.8658 65.5288 23.2381 65.5052C26.8149 65.4696 28.0447 64.6802 28.0447 63.5341C28.0447 62.3886 26.8283 62.1132 22.9088 61.4948L19.5808 60.9446C15.8253 60.3714 13.0909 59.5237 13.0909 56.4989C13.0909 53.3592 16.55 51.3881 22.0192 51.3881C24.3239 51.3881 26.2521 51.699 28.1028 52.7553C28.6154 53.0918 29.0962 53.132 29.0898 51.8696ZM76.2489 61.078L76.2966 54.9651C76.2966 54.1631 75.8833 53.8883 74.7026 53.8883H73.3153V51.9864H82.1418V53.8883H80.9914C79.8097 53.8883 79.3965 54.1636 79.3965 54.9651V67.2717L75.9419 67.2441L64.7541 56.5465V64.3156C64.7541 65.095 65.1674 65.3924 66.3481 65.3924H67.8839V67.2717H58.7172V65.3924H60.2361C61.4168 65.3924 61.83 65.0945 61.83 64.3156V54.9651C61.83 54.1631 61.4168 53.8883 60.2361 53.8883H58.7172V51.9864H66.6426L76.2489 61.078ZM46.6835 51.2727C39.6492 51.2727 35.2459 54.4129 35.2459 59.454C35.2459 64.4048 39.5881 67.521 46.469 67.521C53.7775 67.521 58.0288 64.4505 58.0288 59.2022C58.0293 54.4816 53.4417 51.2727 46.6835 51.2727ZM46.5236 65.5278C42.6299 65.5278 40.3918 63.2588 40.3918 59.3397C40.3918 55.5128 42.7273 53.2438 46.7183 53.2438C50.5469 53.2438 52.785 55.559 52.785 59.5007C52.785 63.3506 50.5141 65.5278 46.5236 65.5278Z" fill="#919EAB"/>
</svg>
