<svg width="56" height="56" viewBox="0 0 56 56" fill="none" xmlns="http://www.w3.org/2000/svg">
<path fill-rule="evenodd" clip-rule="evenodd" d="M13.44 11.2H42.56V10.08C42.56 7.00634 40.228 4.48 37.3046 4.48H18.6954C15.772 4.48 13.44 7.00634 13.44 10.08V11.2ZM42.56 45.92V42.56H13.44V45.92C13.44 48.9937 15.772 51.52 18.6954 51.52H37.3046C40.228 51.52 42.56 48.9937 42.56 45.92ZM25.76 47.04H30.24C30.8586 47.04 31.36 46.5386 31.36 45.92C31.36 45.3014 30.8586 44.8 30.24 44.8H25.76C25.1414 44.8 24.64 45.3014 24.64 45.92C24.64 46.5386 25.1414 47.04 25.76 47.04ZM42.56 13.44H13.44V40.32H42.56V13.44Z" fill="#454F5B"/>
</svg>
