<svg width="19" height="14" viewBox="0 0 19 14" fill="none" xmlns="http://www.w3.org/2000/svg">
<rect width="19" height="14" rx="2" fill="white"/>
<mask id="mask0_690_445" style="mask-type:luminance" maskUnits="userSpaceOnUse" x="0" y="0" width="19" height="14">
<rect width="19" height="14" rx="2" fill="white"/>
</mask>
<g mask="url(#mask0_690_445)">
<path fill-rule="evenodd" clip-rule="evenodd" d="M19 0H0V0.933333H19V0ZM19 1.86667H0V2.8H19V1.86667ZM0 3.73333H19V4.66667H0V3.73333ZM19 5.6H0V6.53333H19V5.6ZM0 7.46667H19V8.4H0V7.46667ZM19 9.33333H0V10.2667H19V9.33333ZM0 11.2H19V12.1333H0V11.2ZM19 13.0667H0V14H19V13.0667Z" fill="#D02F44"/>
<rect width="8.14286" height="6.53333" fill="#46467F"/>
<g filter="url(#filter0_d_690_445)">
<path fill-rule="evenodd" clip-rule="evenodd" d="M1.35714 1.86668C1.60698 1.86668 1.80952 1.65775 1.80952 1.40002C1.80952 1.14228 1.60698 0.93335 1.35714 0.93335C1.10729 0.93335 0.904755 1.14228 0.904755 1.40002C0.904755 1.65775 1.10729 1.86668 1.35714 1.86668ZM3.16666 1.86668C3.4165 1.86668 3.61904 1.65775 3.61904 1.40002C3.61904 1.14228 3.4165 0.93335 3.16666 0.93335C2.91682 0.93335 2.71428 1.14228 2.71428 1.40002C2.71428 1.65775 2.91682 1.86668 3.16666 1.86668ZM5.42856 1.40002C5.42856 1.65775 5.22603 1.86668 4.97618 1.86668C4.72634 1.86668 4.5238 1.65775 4.5238 1.40002C4.5238 1.14228 4.72634 0.93335 4.97618 0.93335C5.22603 0.93335 5.42856 1.14228 5.42856 1.40002ZM6.78571 1.86668C7.03555 1.86668 7.23809 1.65775 7.23809 1.40002C7.23809 1.14228 7.03555 0.93335 6.78571 0.93335C6.53586 0.93335 6.33333 1.14228 6.33333 1.40002C6.33333 1.65775 6.53586 1.86668 6.78571 1.86668ZM2.71428 2.33335C2.71428 2.59108 2.51174 2.80002 2.2619 2.80002C2.01205 2.80002 1.80952 2.59108 1.80952 2.33335C1.80952 2.07562 2.01205 1.86668 2.2619 1.86668C2.51174 1.86668 2.71428 2.07562 2.71428 2.33335ZM4.07142 2.80002C4.32126 2.80002 4.5238 2.59108 4.5238 2.33335C4.5238 2.07562 4.32126 1.86668 4.07142 1.86668C3.82158 1.86668 3.61904 2.07562 3.61904 2.33335C3.61904 2.59108 3.82158 2.80002 4.07142 2.80002ZM6.33333 2.33335C6.33333 2.59108 6.13079 2.80002 5.88095 2.80002C5.6311 2.80002 5.42856 2.59108 5.42856 2.33335C5.42856 2.07562 5.6311 1.86668 5.88095 1.86668C6.13079 1.86668 6.33333 2.07562 6.33333 2.33335ZM6.78571 3.73335C7.03555 3.73335 7.23809 3.52442 7.23809 3.26668C7.23809 3.00895 7.03555 2.80002 6.78571 2.80002C6.53586 2.80002 6.33333 3.00895 6.33333 3.26668C6.33333 3.52442 6.53586 3.73335 6.78571 3.73335ZM5.42856 3.26668C5.42856 3.52442 5.22603 3.73335 4.97618 3.73335C4.72634 3.73335 4.5238 3.52442 4.5238 3.26668C4.5238 3.00895 4.72634 2.80002 4.97618 2.80002C5.22603 2.80002 5.42856 3.00895 5.42856 3.26668ZM3.16666 3.73335C3.4165 3.73335 3.61904 3.52442 3.61904 3.26668C3.61904 3.00895 3.4165 2.80002 3.16666 2.80002C2.91682 2.80002 2.71428 3.00895 2.71428 3.26668C2.71428 3.52442 2.91682 3.73335 3.16666 3.73335ZM1.80952 3.26668C1.80952 3.52442 1.60698 3.73335 1.35714 3.73335C1.10729 3.73335 0.904755 3.52442 0.904755 3.26668C0.904755 3.00895 1.10729 2.80002 1.35714 2.80002C1.60698 2.80002 1.80952 3.00895 1.80952 3.26668ZM2.2619 4.66668C2.51174 4.66668 2.71428 4.45775 2.71428 4.20002C2.71428 3.94228 2.51174 3.73335 2.2619 3.73335C2.01205 3.73335 1.80952 3.94228 1.80952 4.20002C1.80952 4.45775 2.01205 4.66668 2.2619 4.66668ZM4.5238 4.20002C4.5238 4.45775 4.32126 4.66668 4.07142 4.66668C3.82158 4.66668 3.61904 4.45775 3.61904 4.20002C3.61904 3.94228 3.82158 3.73335 4.07142 3.73335C4.32126 3.73335 4.5238 3.94228 4.5238 4.20002ZM5.88095 4.66668C6.13079 4.66668 6.33333 4.45775 6.33333 4.20002C6.33333 3.94228 6.13079 3.73335 5.88095 3.73335C5.6311 3.73335 5.42856 3.94228 5.42856 4.20002C5.42856 4.45775 5.6311 4.66668 5.88095 4.66668ZM7.23809 5.13335C7.23809 5.39108 7.03555 5.60002 6.78571 5.60002C6.53586 5.60002 6.33333 5.39108 6.33333 5.13335C6.33333 4.87562 6.53586 4.66668 6.78571 4.66668C7.03555 4.66668 7.23809 4.87562 7.23809 5.13335ZM4.97618 5.60002C5.22603 5.60002 5.42856 5.39108 5.42856 5.13335C5.42856 4.87562 5.22603 4.66668 4.97618 4.66668C4.72634 4.66668 4.5238 4.87562 4.5238 5.13335C4.5238 5.39108 4.72634 5.60002 4.97618 5.60002ZM3.61904 5.13335C3.61904 5.39108 3.4165 5.60002 3.16666 5.60002C2.91682 5.60002 2.71428 5.39108 2.71428 5.13335C2.71428 4.87562 2.91682 4.66668 3.16666 4.66668C3.4165 4.66668 3.61904 4.87562 3.61904 5.13335ZM1.35714 5.60002C1.60698 5.60002 1.80952 5.39108 1.80952 5.13335C1.80952 4.87562 1.60698 4.66668 1.35714 4.66668C1.10729 4.66668 0.904755 4.87562 0.904755 5.13335C0.904755 5.39108 1.10729 5.60002 1.35714 5.60002Z" fill="url(#paint0_linear_690_445)"/>
</g>
</g>
<defs>
<filter id="filter0_d_690_445" x="0.904755" y="0.93335" width="6.33334" height="5.66675" filterUnits="userSpaceOnUse" color-interpolation-filters="sRGB">
<feFlood flood-opacity="0" result="BackgroundImageFix"/>
<feColorMatrix in="SourceAlpha" type="matrix" values="0 0 0 0 0 0 0 0 0 0 0 0 0 0 0 0 0 0 127 0" result="hardAlpha"/>
<feOffset dy="1"/>
<feColorMatrix type="matrix" values="0 0 0 0 0 0 0 0 0 0 0 0 0 0 0 0 0 0 0.06 0"/>
<feBlend mode="normal" in2="BackgroundImageFix" result="effect1_dropShadow_690_445"/>
<feBlend mode="normal" in="SourceGraphic" in2="effect1_dropShadow_690_445" result="shape"/>
</filter>
<linearGradient id="paint0_linear_690_445" x1="0.904755" y1="0.93335" x2="0.904755" y2="5.60002" gradientUnits="userSpaceOnUse">
<stop stop-color="white"/>
<stop offset="1" stop-color="#F0F0F0"/>
</linearGradient>
</defs>
</svg>
