<svg width="120" height="120" viewBox="0 0 120 120" fill="none" xmlns="http://www.w3.org/2000/svg">
<rect width="120" height="120" rx="8" fill="white"/>
<path fill-rule="evenodd" clip-rule="evenodd" d="M43.2637 51.2752C41.2879 51.2752 40.3581 51.4802 39.3275 51.8757L39.144 51.9425L40.2615 53.9273L40.3949 53.8772C41.1549 53.566 41.9943 53.4604 43.564 53.4604H45.2319C47.6711 53.4604 49.0682 54.6747 49.0682 56.8128V63.3844C49.0682 65.521 47.6711 66.737 45.2319 66.737H42.5132C40.0132 66.737 38.7936 65.735 38.7936 63.6514C38.7936 61.5842 40.0131 60.5825 42.5132 60.5825H46.2993V58.3807H42.3964C38.6858 58.3807 36.5587 60.3108 36.5587 63.6681C36.5587 66.9142 38.7959 68.9387 42.3964 68.9387H45.3319C49.4295 68.9387 51.3031 66.2038 51.3031 63.6681V56.5294C51.3031 53.994 49.4295 51.2753 45.3319 51.2753H43.2637V51.2752ZM59.7763 51.2752C55.6783 51.2752 53.805 53.994 53.805 56.5292V63.668C53.805 66.2038 55.6782 68.9386 59.7762 68.9386H62.3116C64.399 68.9386 65.767 68.6337 66.865 67.9211L66.9983 67.8211L65.7308 65.9697L65.5973 66.053C64.778 66.5494 63.7413 66.7369 62.028 66.7369H59.8762C57.4024 66.7369 56.0399 65.5524 56.0399 63.3843V56.8128C56.0399 54.6436 57.403 53.4602 59.8762 53.4602H62.0279C63.739 53.4602 64.7748 53.6638 65.5972 54.1607L65.7307 54.244L66.9982 52.376L66.8649 52.2926C65.7669 51.5806 64.4009 51.2751 62.3115 51.2751H59.7763V51.2752ZM74.404 51.2752C70.2927 51.2752 68.4162 53.994 68.4162 56.5292V63.668C68.4162 66.2038 70.2892 68.9386 74.3874 68.9386H77.3229C81.4214 68.9386 83.2774 66.2037 83.2774 63.668V56.5293C83.2774 53.9944 81.4035 51.2752 77.2895 51.2752H74.404ZM91.7337 51.3086C88.1977 51.3086 85.9127 53.3158 85.9127 56.4125V68.8553H88.1477V56.6963C88.1477 54.5446 89.3499 53.4938 91.8339 53.4938C94.1898 53.4938 95.4866 54.5666 95.4866 56.496V68.8553H97.7216V56.4961C97.7216 54.5666 99.0184 53.4938 101.374 53.4938C103.859 53.4938 105.077 54.5447 105.077 56.6962V68.8553H107.296V56.4125C107.296 53.3157 105.009 51.3086 101.475 51.3086C99.1154 51.3086 97.6909 51.8919 96.6041 53.2935C95.5189 51.8919 94.0901 51.3086 91.7337 51.3086ZM13.0909 51.392V63.8347C13.0909 66.9309 15.376 68.9386 18.9121 68.9386C21.2685 68.9386 22.6973 68.357 23.7824 66.9538C24.8679 68.357 26.2958 68.9386 28.6529 68.9386C32.1873 68.9386 34.4739 66.931 34.4739 63.8347V51.392H32.2555V63.5512C32.2555 65.7017 31.0367 66.737 28.5527 66.737C26.1972 66.737 24.8999 65.6793 24.8999 63.7514V51.392H22.6815V63.7513C22.6815 65.6786 21.3847 66.7369 19.0287 66.7369C16.5448 66.7369 15.3259 65.7016 15.3259 63.5511V51.3921H13.0909V51.392ZM74.4874 53.4603H77.206C79.6453 53.4603 81.0423 54.6746 81.0423 56.8128V63.3844C81.0423 65.521 79.6453 66.737 77.206 66.737H74.4874C72.0125 66.737 70.6511 65.5525 70.6511 63.3844V56.8129C70.6511 54.6746 72.0488 53.4603 74.4874 53.4603Z" fill="#919EAB"/>
</svg>
