<svg width="120" height="120" viewBox="0 0 120 120" fill="none" xmlns="http://www.w3.org/2000/svg">
<rect width="120" height="120" rx="8" fill="white"/>
<path fill-rule="evenodd" clip-rule="evenodd" d="M70.5983 53.6875V75.4684L70.5985 75.4672C70.5985 75.6592 70.4411 75.8153 70.2482 75.8153H63.6202C63.428 75.8153 63.2699 75.6572 63.2699 75.465V56.1791C63.2699 53.462 61.0667 51.2603 58.3504 51.2603H43.8842C43.6909 51.2613 43.5344 51.4177 43.5333 51.6111V75.4661C43.5322 75.6591 43.3758 75.8152 43.1828 75.816H36.4549C36.3622 75.8164 36.2731 75.7801 36.2072 75.7148C36.1413 75.6496 36.104 75.5609 36.1035 75.4681V45.0749C36.1035 44.8828 36.2605 44.7264 36.4549 44.7264H61.6392C66.5876 44.7264 70.5983 48.7387 70.5983 53.6875ZM57.0137 75.4668V75.4661V57.185C57.0137 56.9932 56.8558 56.8351 56.6638 56.8351H49.9378C49.7454 56.8351 49.5868 56.9937 49.5866 57.1861V75.4661C49.5867 75.5592 49.6238 75.6485 49.6898 75.7142C49.7557 75.7799 49.8451 75.8167 49.9382 75.8164H56.6645C56.8562 75.8164 57.0137 75.6583 57.0137 75.4668ZM83.5563 75.8162C83.7507 75.8162 83.9077 75.6599 83.9077 75.4661V45.0781V45.0778C83.9077 44.8852 83.7494 44.7267 83.5567 44.7267H76.8322C76.6381 44.7267 76.4793 44.8837 76.4793 45.0781V75.4661C76.4803 75.6602 76.6382 75.8168 76.8322 75.8162H83.5563Z" fill="#919EAB"/>
</svg>
